<?xml version="1.0" encoding="UTF-8"?> <!-- Generator: Adobe Illustrator 23.0.6, SVG Export Plug-In . SVG Version: 6.00 Build 0) --> <svg xmlns="http://www.w3.org/2000/svg" xmlns:xlink="http://www.w3.org/1999/xlink" x="0px" y="0px" viewBox="0 0 417 215" style="enable-background:new 0 0 417 215;" xml:space="preserve"> <style type="text/css"> .st0{display:none;} .st1{fill:#D9D9D9;} </style> <g id="Layer_1" class="st0"> <image style="display:inline;overflow:visible;" width="500" height="231" xlink:href="Komprimert logo.jpg" transform="matrix(1 0 0 1 -42.3858 -22.8423)"> </image> </g> <g id="Layer_2"> <g> <g> <path class="st1" d="M45.6,92h22.8C84.8,92,93,80.4,93,68.9c0-11.4-8.1-23-24.6-23h-30v113.5H19V26.6h49.3 c29.4,0,44.1,21.2,44.1,42.3c0,18.8-11.8,36.6-35,40.6l42.8,49.9H94.9l-49.3-58.2V92z"></path> <path class="st1" d="M179.1,26.8v132.6h-19.4V26.8H179.1z M182.8,88.2L230,26.8h24.6l-51.7,65.8l57.1,66.8h-25.5l-51.7-61.5V88.2 z"></path> <path class="st1" d="M319.4,26.8v132.6H300V26.8H319.4z M323.1,88.2l47.2-61.5h24.6l-51.7,65.8l57.1,66.8h-25.5l-51.7-61.5V88.2z "></path> </g> </g> </g> <g id="Layer_3"> <g> <path d="M86.7,76.7C81.6,63.5,69,55.6,55.3,55.6c-9.6,0-18.2,4.1-24.5,10.7c-6.1,6.5-10,15.4-10,25.3c0,9.9,3.9,18.9,10,25.3 c6.3,6.7,14.9,10.7,24.5,10.7c14.8,0,30.5-11.7,33.3-27.3H56v-1.7h34.7c-0.2,2.5-0.8,5-1.8,7.4c-4.9,13.5-20.4,23.4-33.6,23.4 c-10,0-19.1-4.3-25.7-11.2c-6.4-6.8-10.6-16.2-10.6-26.6c0-10.3,4.1-19.7,10.6-26.6c6.5-6.9,15.6-11.1,25.7-11.1 c14.6,0,28.3,8.8,33.2,22.8H86.7z"></path> <path d="M141.3,103.6h-37.4l-10,24.8h-1.8l29.7-75h1.8l29.7,75h-1.8L141.3,103.6z M104.6,102h36l-18.1-46.3L104.6,102z"></path> <path d="M161.4,126.7h39.7v1.7c-13.8,0-27.6,0-41.4,0V54.6h1.7V126.7z"></path> <path d="M210.5,126.7h39.7v1.7c-13.8,0-27.6,0-41.4,0V54.6h1.7V126.7z"></path> <path d="M259.6,126.8h39.3v1.6h-40.8h-0.2V54.6h40.8v1.6h-39.1v34.4h38.2v1.7h-38.2V126.8z"></path> <path d="M309.9,128.4h-1.6V55.3v-0.8h0.8h24.7c29.6,0,29.6,43.2,0,43.2h-11.9l34,30.7h-2.4l-34-30.7v-1.6h14.4 c27.4,0,27.4-39.9,0-39.9h-24V128.4z"></path> <path d="M395.2,56.1h-15.7v70.7h15.7v1.6c-11,0-22.1,0-33,0v-1.6h15.7V56.1h-15.7v-1.5c11,0,22.1,0,33,0V56.1z"></path> </g> </g> <g id="Layer_4"> <g> <path d="M32.1,187.4h-7.2l-2.2,6.2h-0.9l6.3-17.4h0.8l6.3,17.4h-0.9L32.1,187.4z M31.9,186.7l-1.2-3.5c-0.8-2.1-1.4-3.9-2-6.1 h-0.1c-0.6,2.2-1.3,3.9-2,6.1l-1.3,3.5H31.9z"></path> <path d="M48,193.6l-5-8.2h-4v8.2h-0.9v-17.4h4.9c3.5,0,5.7,1.3,5.7,4.5c0,2.8-1.8,4.4-4.8,4.6l5,8.3H48z M42.7,184.7 c3.3,0,5.1-1.3,5.1-3.9c0-2.7-1.8-3.7-5.1-3.7h-3.7v7.7H42.7z"></path> <path d="M56.1,177h-5.7v-0.7h12.3v0.7H57v16.6h-0.9V177z"></path> <path d="M71.5,176.3h4.6c3.5,0,5.7,1.4,5.7,4.2c0,1.8-1,3.3-2.8,3.8v0.1c2.4,0.4,3.9,1.8,3.9,4.2c0,3.3-2.5,5.1-6.5,5.1h-4.9 V176.3z M75.6,184c3.9,0,5.4-1.3,5.4-3.5c0-2.6-1.8-3.5-5.3-3.5h-3.4v7H75.6z M76.1,192.9c3.7,0,6-1.3,6-4.3c0-2.6-2.2-3.9-6-3.9 h-3.8v8.2H76.1z"></path> <path d="M89.4,186.5l-5.3-10.2H85l2.8,5.6c0.6,1.3,1.2,2.5,1.9,3.7h0.1c0.7-1.3,1.4-2.5,2-3.7l2.8-5.6h0.9l-5.3,10.2v7.2h-0.9 V186.5z"></path> <path d="M113.5,193.6l-5-8.2h-4v8.2h-0.9v-17.4h4.9c3.5,0,5.7,1.3,5.7,4.5c0,2.8-1.8,4.4-4.8,4.6l5,8.3H113.5z M108.2,184.7 c3.3,0,5.1-1.3,5.1-3.9c0-2.7-1.8-3.7-5.1-3.7h-3.7v7.7H108.2z"></path> <path d="M125.9,187.4h-7.2l-2.2,6.2h-0.9l6.3-17.4h0.8l6.3,17.4h-0.9L125.9,187.4z M125.6,186.7l-1.2-3.5c-0.8-2.1-1.4-3.9-2-6.1 h-0.1c-0.6,2.2-1.3,3.9-2,6.1l-1.3,3.5H125.6z"></path> <path d="M131.9,176.3h0.9v10h0.1l9-10h1.1l-5.7,6.4l6.4,11h-1l-6.1-10.4l-3.8,4.2v6.2h-0.9V176.3z"></path> <path d="M146.7,176.3h9.5v0.7h-8.6v7h7.2v0.7h-7.2v8.2h8.9v0.7h-9.8V176.3z"></path> <path d="M160.3,176.3h0.9v16.6h8.3v0.7h-9.2V176.3z"></path> <path d="M178,176.3h0.9v10h0.1l9-10h1.1l-5.7,6.4l6.4,11h-1l-6.1-10.4l-3.8,4.2v6.2H178V176.3z"></path> <path d="M202.6,193.6l-5-8.2h-4v8.2h-0.9v-17.4h4.9c3.5,0,5.7,1.3,5.7,4.5c0,2.8-1.8,4.4-4.8,4.6l5,8.3H202.6z M197.3,184.7 c3.3,0,5.1-1.3,5.1-3.9c0-2.7-1.8-3.7-5.1-3.7h-3.7v7.7H197.3z"></path> <path d="M207.1,176.3h0.9v17.4h-0.9V176.3z"></path> <path d="M211.9,191.3l0.6-0.6c1.3,1.5,3.2,2.4,5.3,2.4c2.8,0,4.7-1.5,4.7-3.7c0-2.3-1.5-3.1-3.3-3.8l-2.7-1.2 c-1.5-0.7-3.6-1.7-3.6-4.3c0-2.5,2.1-4.2,5-4.2c2.1,0,3.8,1,4.8,2.1l-0.5,0.6c-1-1.1-2.5-1.8-4.3-1.8c-2.5,0-4.1,1.3-4.1,3.3 c0,2.2,1.8,3,3.1,3.5l2.7,1.2c2,0.9,3.8,1.9,3.8,4.6c0,2.6-2.2,4.6-5.5,4.6C215.1,193.9,213.2,192.8,211.9,191.3z"></path> <path d="M230.4,177h-5.7v-0.7H237v0.7h-5.7v16.6h-0.9V177z"></path> <path d="M240.5,176.3h0.9v17.4h-0.9V176.3z"></path> <path d="M246.7,176.3h0.9l7.8,12.7l2,3.4h0.1c-0.1-1.7-0.1-3.3-0.1-4.9v-11.3h0.8v17.4h-0.9l-7.8-12.7l-2-3.4h-0.1 c0.1,1.6,0.1,3.1,0.1,4.7v11.4h-0.8V176.3z"></path> <path d="M269,176.3h0.9v10h0.1l9-10h1.1l-5.7,6.4l6.4,11h-1l-6.1-10.4l-3.8,4.2v6.2H269V176.3z"></path> <path d="M291.4,187.4h-7.2l-2.2,6.2h-0.9l6.3-17.4h0.8l6.3,17.4h-0.9L291.4,187.4z M291.1,186.7l-1.2-3.5c-0.8-2.1-1.4-3.9-2-6.1 h-0.1c-0.6,2.2-1.3,3.9-2,6.1l-1.3,3.5H291.1z"></path> <path d="M297.4,176.3h0.9l7.8,12.7l2,3.4h0.1c-0.1-1.7-0.1-3.3-0.1-4.9v-11.3h0.8v17.4h-0.9l-7.8-12.7l-2-3.4h-0.1 c0.1,1.6,0.1,3.1,0.1,4.7v11.4h-0.8V176.3z"></path> <path d="M314.3,176.3h9.5v0.7h-8.6v7h7.2v0.7h-7.2v8.2h8.9v0.7h-9.8V176.3z"></path> <path d="M326.6,191.3l0.6-0.6c1.3,1.5,3.2,2.4,5.3,2.4c2.8,0,4.7-1.5,4.7-3.7c0-2.3-1.5-3.1-3.3-3.8l-2.7-1.2 c-1.5-0.7-3.6-1.7-3.6-4.3c0-2.5,2.1-4.2,5-4.2c2.1,0,3.8,1,4.8,2.1l-0.5,0.6c-1-1.1-2.5-1.8-4.3-1.8c-2.5,0-4.1,1.3-4.1,3.3 c0,2.2,1.8,3,3.1,3.5l2.7,1.2c2,0.9,3.8,1.9,3.8,4.6c0,2.6-2.2,4.6-5.5,4.6C329.9,193.9,328,192.8,326.6,191.3z"></path> <path d="M345.2,177h-5.7v-0.7h12.3v0.7H346v16.6h-0.9V177z"></path> <path d="M365,193.6l-5-8.2h-4v8.2h-0.9v-17.4h4.9c3.5,0,5.7,1.3,5.7,4.5c0,2.8-1.8,4.4-4.8,4.6l5,8.3H365z M359.8,184.7 c3.3,0,5.1-1.3,5.1-3.9c0-2.7-1.8-3.7-5.1-3.7h-3.7v7.7H359.8z"></path> <path d="M382.8,184.9c0,5.5-3,9-7.2,9c-1.9,0-3.6-0.8-4.9-2.1l-1.8,2.3l-0.6-0.4l1.9-2.5c-1.2-1.6-1.8-3.7-1.8-6.3 c0-5.5,3-8.9,7.2-8.9c1.8,0,3.5,0.7,4.7,1.9l1.6-2.1l0.6,0.4l-1.7,2.3C382.1,180,382.8,182.2,382.8,184.9z M370.8,190.5l9-12 c-1.1-1.2-2.5-1.8-4.2-1.8c-3.8,0-6.3,3.2-6.3,8.2C369.4,187.2,369.9,189.1,370.8,190.5z M381.9,184.9c0-2.4-0.6-4.4-1.6-5.8 l-9.1,12c1.1,1.3,2.6,2,4.4,2C379.4,193.2,381.9,189.9,381.9,184.9z"></path> <path d="M386.9,176.3h1.4l3.8,10.5l1.4,3.9h0.1c0.5-1.3,0.9-2.6,1.4-3.9l3.8-10.5h1.4v17.4h-0.9v-12.1c0-1.4,0.1-3.1,0.1-4.5h-0.1 l-1.4,3.8l-4,10.8h-0.9l-4-10.8l-1.4-3.8h-0.1c0.1,1.4,0.1,3.2,0.1,4.5v12.1h-0.8V176.3z"></path> </g> </g> </svg> 